M48
INCH,TZ
T1C0.024
T2C0.032
T3C0.035
%
G05
T1
X16346Y-17959
X16885Y-16865
X18483Y-16207
X19007Y-12392
X19224Y-13306
X20488Y-21192
X20558Y-15920
X21727Y-11361
X23842Y-13089
X26288Y-21200
X28208Y-13800
X28224Y-21200
X32576Y-10080
X34576Y-21200
X35389Y-15592
X38829Y-13178
X38896Y-21176
X41216Y-21184
X47881Y-21184
X54176Y-21204
X55816Y-21200
X58464Y-17475
X62104Y-21200
X63476Y-21196
T2
X48767Y-16476
X48779Y-14936
X51916Y-16476
X51928Y-14936
X62940Y-16476
X62952Y-14936
X66089Y-16476
X66101Y-14936
T3
X27979Y-11562
X29711Y-11562
T0
M30
